<?xml version="1.0" encoding="UTF-8" standalone="no"?>
<!DOCTYPE svg PUBLIC "-//W3C//DTD SVG 1.1//EN"
 "http://www.w3.org/Graphics/SVG/1.1/DTD/svg11.dtd">
<!-- Generated by graphviz version 7.1.0 (20230121.1956)
 -->
<!-- Title: inheritancea9de3c9218 Pages: 1 -->
<svg width="320pt" height="864pt"
 viewBox="0.00 0.00 320.10 864.00" xmlns="http://www.w3.org/2000/svg" xmlns:xlink="http://www.w3.org/1999/xlink">
<g id="graph0" class="graph" transform="scale(0.944262 0.944262) rotate(0) translate(4 911)">
<title>inheritancea9de3c9218</title>
<!-- Cuts -->
<g id="node1" class="node">
<title>Cuts</title>
<g id="a_node1"><a xlink:href="../api/minkasi_wrapper.extern.minkasi.minkasi.Cuts.html#minkasi_wrapper.extern.minkasi.minkasi.Cuts" xlink:title="Cuts" target="_top">
<polygon fill="white" stroke="black" stroke-width="0.5" points="80.5,-19 26.5,-19 26.5,0 80.5,0 80.5,-19"/>
<text text-anchor="middle" x="53.5" y="-7" font-family="Vera Sans, DejaVu Sans, Liberation Sans, Arial, Helvetica, sans" font-size="10.00">Cuts</text>
</a>
</g>
</g>
<!-- CutsCompact -->
<g id="node2" class="node">
<title>CutsCompact</title>
<g id="a_node2"><a xlink:href="../api/minkasi_wrapper.extern.minkasi.minkasi.CutsCompact.html#minkasi_wrapper.extern.minkasi.minkasi.CutsCompact" xlink:title="CutsCompact" target="_top">
<polygon fill="white" stroke="black" stroke-width="0.5" points="92,-56 15,-56 15,-37 92,-37 92,-56"/>
<text text-anchor="middle" x="53.5" y="-44" font-family="Vera Sans, DejaVu Sans, Liberation Sans, Arial, Helvetica, sans" font-size="10.00">CutsCompact</text>
</a>
</g>
</g>
<!-- HealMap -->
<g id="node3" class="node">
<title>HealMap</title>
<g id="a_node3"><a xlink:href="../api/minkasi_wrapper.extern.minkasi.minkasi.HealMap.html#minkasi_wrapper.extern.minkasi.minkasi.HealMap" xlink:title="HealMap" target="_top">
<polygon fill="white" stroke="black" stroke-width="0.5" points="220,-130 164,-130 164,-111 220,-111 220,-130"/>
<text text-anchor="middle" x="192" y="-118" font-family="Vera Sans, DejaVu Sans, Liberation Sans, Arial, Helvetica, sans" font-size="10.00">HealMap</text>
</a>
</g>
</g>
<!-- SkyMap -->
<g id="node4" class="node">
<title>SkyMap</title>
<g id="a_node4"><a xlink:href="../api/minkasi_wrapper.extern.minkasi.minkasi.SkyMap.html#minkasi_wrapper.extern.minkasi.minkasi.SkyMap" xlink:title="SkyMap" target="_top">
<polygon fill="white" stroke="black" stroke-width="0.5" points="80.5,-93 26.5,-93 26.5,-74 80.5,-74 80.5,-93"/>
<text text-anchor="middle" x="53.5" y="-81" font-family="Vera Sans, DejaVu Sans, Liberation Sans, Arial, Helvetica, sans" font-size="10.00">SkyMap</text>
</a>
</g>
</g>
<!-- SkyMap&#45;&gt;HealMap -->
<g id="edge1" class="edge">
<title>SkyMap&#45;&gt;HealMap</title>
<path fill="none" stroke="black" stroke-width="0.5" d="M80.82,-90.63C102.72,-96.57 134.03,-105.06 157.68,-111.47"/>
<polygon fill="black" stroke="black" stroke-width="0.5" points="157.81,-113.32 163.1,-112.94 158.73,-109.94 157.81,-113.32"/>
</g>
<!-- SkyMapCar -->
<g id="node15" class="node">
<title>SkyMapCar</title>
<g id="a_node15"><a xlink:href="../api/minkasi_wrapper.extern.minkasi.minkasi.SkyMapCar.html#minkasi_wrapper.extern.minkasi.minkasi.SkyMapCar" xlink:title="SkyMapCar" target="_top">
<polygon fill="white" stroke="black" stroke-width="0.5" points="226,-93 158,-93 158,-74 226,-74 226,-93"/>
<text text-anchor="middle" x="192" y="-81" font-family="Vera Sans, DejaVu Sans, Liberation Sans, Arial, Helvetica, sans" font-size="10.00">SkyMapCar</text>
</a>
</g>
</g>
<!-- SkyMap&#45;&gt;SkyMapCar -->
<g id="edge3" class="edge">
<title>SkyMap&#45;&gt;SkyMapCar</title>
<path fill="none" stroke="black" stroke-width="0.5" d="M80.82,-83.5C100.86,-83.5 128.77,-83.5 151.49,-83.5"/>
<polygon fill="black" stroke="black" stroke-width="0.5" points="151.99,-85.25 156.99,-83.5 151.99,-81.75 151.99,-85.25"/>
</g>
<!-- SkyMapCoarse -->
<g id="node17" class="node">
<title>SkyMapCoarse</title>
<g id="a_node17"><a xlink:href="../api/minkasi_wrapper.extern.minkasi.minkasi.SkyMapCoarse.html#minkasi_wrapper.extern.minkasi.minkasi.SkyMapCoarse" xlink:title="SkyMapCoarse" target="_top">
<polygon fill="white" stroke="black" stroke-width="0.5" points="234,-56 150,-56 150,-37 234,-37 234,-56"/>
<text text-anchor="middle" x="192" y="-44" font-family="Vera Sans, DejaVu Sans, Liberation Sans, Arial, Helvetica, sans" font-size="10.00">SkyMapCoarse</text>
</a>
</g>
</g>
<!-- SkyMap&#45;&gt;SkyMapCoarse -->
<g id="edge4" class="edge">
<title>SkyMap&#45;&gt;SkyMapCoarse</title>
<path fill="none" stroke="black" stroke-width="0.5" d="M80.82,-76.37C99.87,-71.2 126.03,-64.11 148.08,-58.13"/>
<polygon fill="black" stroke="black" stroke-width="0.5" points="149.09,-59.67 153.45,-56.68 148.17,-56.3 149.09,-59.67"/>
</g>
<!-- HealPolMap -->
<g id="node5" class="node">
<title>HealPolMap</title>
<g id="a_node5"><a xlink:href="../api/minkasi_wrapper.extern.minkasi.minkasi.HealPolMap.html#minkasi_wrapper.extern.minkasi.minkasi.HealPolMap" xlink:title="HealPolMap" target="_top">
<polygon fill="white" stroke="black" stroke-width="0.5" points="227,-167 157,-167 157,-148 227,-148 227,-167"/>
<text text-anchor="middle" x="192" y="-155" font-family="Vera Sans, DejaVu Sans, Liberation Sans, Arial, Helvetica, sans" font-size="10.00">HealPolMap</text>
</a>
</g>
</g>
<!-- PolMap -->
<g id="node6" class="node">
<title>PolMap</title>
<g id="a_node6"><a xlink:href="../api/minkasi_wrapper.extern.minkasi.minkasi.PolMap.html#minkasi_wrapper.extern.minkasi.minkasi.PolMap" xlink:title="PolMap" target="_top">
<polygon fill="white" stroke="black" stroke-width="0.5" points="80.5,-167 26.5,-167 26.5,-148 80.5,-148 80.5,-167"/>
<text text-anchor="middle" x="53.5" y="-155" font-family="Vera Sans, DejaVu Sans, Liberation Sans, Arial, Helvetica, sans" font-size="10.00">PolMap</text>
</a>
</g>
</g>
<!-- PolMap&#45;&gt;HealPolMap -->
<g id="edge2" class="edge">
<title>PolMap&#45;&gt;HealPolMap</title>
<path fill="none" stroke="black" stroke-width="0.5" d="M80.82,-157.5C100.49,-157.5 127.75,-157.5 150.24,-157.5"/>
<polygon fill="black" stroke="black" stroke-width="0.5" points="150.99,-159.25 155.99,-157.5 150.99,-155.75 150.99,-159.25"/>
</g>
<!-- MapNoiseWhite -->
<g id="node7" class="node">
<title>MapNoiseWhite</title>
<g id="a_node7"><a xlink:href="../api/minkasi_wrapper.extern.minkasi.minkasi.MapNoiseWhite.html#minkasi_wrapper.extern.minkasi.minkasi.MapNoiseWhite" xlink:title="MapNoiseWhite" target="_top">
<polygon fill="white" stroke="black" stroke-width="0.5" points="96.5,-204 10.5,-204 10.5,-185 96.5,-185 96.5,-204"/>
<text text-anchor="middle" x="53.5" y="-192" font-family="Vera Sans, DejaVu Sans, Liberation Sans, Arial, Helvetica, sans" font-size="10.00">MapNoiseWhite</text>
</a>
</g>
</g>
<!-- Mapset -->
<g id="node8" class="node">
<title>Mapset</title>
<g id="a_node8"><a xlink:href="../api/minkasi_wrapper.extern.minkasi.minkasi.Mapset.html#minkasi_wrapper.extern.minkasi.minkasi.Mapset" xlink:title="Mapset" target="_top">
<polygon fill="white" stroke="black" stroke-width="0.5" points="80.5,-241 26.5,-241 26.5,-222 80.5,-222 80.5,-241"/>
<text text-anchor="middle" x="53.5" y="-229" font-family="Vera Sans, DejaVu Sans, Liberation Sans, Arial, Helvetica, sans" font-size="10.00">Mapset</text>
</a>
</g>
</g>
<!-- NoiseBinnedDet -->
<g id="node9" class="node">
<title>NoiseBinnedDet</title>
<g id="a_node9"><a xlink:href="../api/minkasi_wrapper.extern.minkasi.minkasi.NoiseBinnedDet.html#minkasi_wrapper.extern.minkasi.minkasi.NoiseBinnedDet" xlink:title="NoiseBinnedDet" target="_top">
<polygon fill="white" stroke="black" stroke-width="0.5" points="97.5,-278 9.5,-278 9.5,-259 97.5,-259 97.5,-278"/>
<text text-anchor="middle" x="53.5" y="-266" font-family="Vera Sans, DejaVu Sans, Liberation Sans, Arial, Helvetica, sans" font-size="10.00">NoiseBinnedDet</text>
</a>
</g>
</g>
<!-- NoiseBinnedEig -->
<g id="node10" class="node">
<title>NoiseBinnedEig</title>
<g id="a_node10"><a xlink:href="../api/minkasi_wrapper.extern.minkasi.minkasi.NoiseBinnedEig.html#minkasi_wrapper.extern.minkasi.minkasi.NoiseBinnedEig" xlink:title="NoiseBinnedEig" target="_top">
<polygon fill="white" stroke="black" stroke-width="0.5" points="96.5,-315 10.5,-315 10.5,-296 96.5,-296 96.5,-315"/>
<text text-anchor="middle" x="53.5" y="-303" font-family="Vera Sans, DejaVu Sans, Liberation Sans, Arial, Helvetica, sans" font-size="10.00">NoiseBinnedEig</text>
</a>
</g>
</g>
<!-- NoiseCMWhite -->
<g id="node11" class="node">
<title>NoiseCMWhite</title>
<g id="a_node11"><a xlink:href="../api/minkasi_wrapper.extern.minkasi.minkasi.NoiseCMWhite.html#minkasi_wrapper.extern.minkasi.minkasi.NoiseCMWhite" xlink:title="NoiseCMWhite" target="_top">
<polygon fill="white" stroke="black" stroke-width="0.5" points="95,-352 12,-352 12,-333 95,-333 95,-352"/>
<text text-anchor="middle" x="53.5" y="-340" font-family="Vera Sans, DejaVu Sans, Liberation Sans, Arial, Helvetica, sans" font-size="10.00">NoiseCMWhite</text>
</a>
</g>
</g>
<!-- NoiseSmoothedSVD -->
<g id="node12" class="node">
<title>NoiseSmoothedSVD</title>
<g id="a_node12"><a xlink:href="../api/minkasi_wrapper.extern.minkasi.minkasi.NoiseSmoothedSVD.html#minkasi_wrapper.extern.minkasi.minkasi.NoiseSmoothedSVD" xlink:title="NoiseSmoothedSVD" target="_top">
<polygon fill="white" stroke="black" stroke-width="0.5" points="107,-389 0,-389 0,-370 107,-370 107,-389"/>
<text text-anchor="middle" x="53.5" y="-377" font-family="Vera Sans, DejaVu Sans, Liberation Sans, Arial, Helvetica, sans" font-size="10.00">NoiseSmoothedSVD</text>
</a>
</g>
</g>
<!-- NoiseWhite -->
<g id="node13" class="node">
<title>NoiseWhite</title>
<g id="a_node13"><a xlink:href="../api/minkasi_wrapper.extern.minkasi.minkasi.NoiseWhite.html#minkasi_wrapper.extern.minkasi.minkasi.NoiseWhite" xlink:title="NoiseWhite" target="_top">
<polygon fill="white" stroke="black" stroke-width="0.5" points="87.5,-426 19.5,-426 19.5,-407 87.5,-407 87.5,-426"/>
<text text-anchor="middle" x="53.5" y="-414" font-family="Vera Sans, DejaVu Sans, Liberation Sans, Arial, Helvetica, sans" font-size="10.00">NoiseWhite</text>
</a>
</g>
</g>
<!-- NoiseWhiteNotch -->
<g id="node14" class="node">
<title>NoiseWhiteNotch</title>
<g id="a_node14"><a xlink:href="../api/minkasi_wrapper.extern.minkasi.minkasi.NoiseWhiteNotch.html#minkasi_wrapper.extern.minkasi.minkasi.NoiseWhiteNotch" xlink:title="NoiseWhiteNotch" target="_top">
<polygon fill="white" stroke="black" stroke-width="0.5" points="100.5,-463 6.5,-463 6.5,-444 100.5,-444 100.5,-463"/>
<text text-anchor="middle" x="53.5" y="-451" font-family="Vera Sans, DejaVu Sans, Liberation Sans, Arial, Helvetica, sans" font-size="10.00">NoiseWhiteNotch</text>
</a>
</g>
</g>
<!-- SkyMapCarOld -->
<g id="node16" class="node">
<title>SkyMapCarOld</title>
<g id="a_node16"><a xlink:href="../api/minkasi_wrapper.extern.minkasi.minkasi.SkyMapCarOld.html#minkasi_wrapper.extern.minkasi.minkasi.SkyMapCarOld" xlink:title="SkyMapCarOld" target="_top">
<polygon fill="white" stroke="black" stroke-width="0.5" points="95,-500 12,-500 12,-481 95,-481 95,-500"/>
<text text-anchor="middle" x="53.5" y="-488" font-family="Vera Sans, DejaVu Sans, Liberation Sans, Arial, Helvetica, sans" font-size="10.00">SkyMapCarOld</text>
</a>
</g>
</g>
<!-- SkyMapTwoRes -->
<g id="node18" class="node">
<title>SkyMapTwoRes</title>
<g id="a_node18"><a xlink:href="../api/minkasi_wrapper.extern.minkasi.minkasi.SkyMapTwoRes.html#minkasi_wrapper.extern.minkasi.minkasi.SkyMapTwoRes" xlink:title="A pair of maps to serve as a prior for multi&#45;experiment mapping. &#160;This would e.g. be the ACT map that e.g. Mustang should agree" target="_top">
<polygon fill="white" stroke="black" stroke-width="0.5" points="98,-537 9,-537 9,-518 98,-518 98,-537"/>
<text text-anchor="middle" x="53.5" y="-525" font-family="Vera Sans, DejaVu Sans, Liberation Sans, Arial, Helvetica, sans" font-size="10.00">SkyMapTwoRes</text>
</a>
</g>
</g>
<!-- Tod -->
<g id="node19" class="node">
<title>Tod</title>
<g id="a_node19"><a xlink:href="../api/minkasi_wrapper.extern.minkasi.minkasi.Tod.html#minkasi_wrapper.extern.minkasi.minkasi.Tod" xlink:title="Tod" target="_top">
<polygon fill="white" stroke="black" stroke-width="0.5" points="80.5,-574 26.5,-574 26.5,-555 80.5,-555 80.5,-574"/>
<text text-anchor="middle" x="53.5" y="-562" font-family="Vera Sans, DejaVu Sans, Liberation Sans, Arial, Helvetica, sans" font-size="10.00">Tod</text>
</a>
</g>
</g>
<!-- TodVec -->
<g id="node20" class="node">
<title>TodVec</title>
<g id="a_node20"><a xlink:href="../api/minkasi_wrapper.extern.minkasi.minkasi.TodVec.html#minkasi_wrapper.extern.minkasi.minkasi.TodVec" xlink:title="TodVec" target="_top">
<polygon fill="white" stroke="black" stroke-width="0.5" points="80.5,-611 26.5,-611 26.5,-592 80.5,-592 80.5,-611"/>
<text text-anchor="middle" x="53.5" y="-599" font-family="Vera Sans, DejaVu Sans, Liberation Sans, Arial, Helvetica, sans" font-size="10.00">TodVec</text>
</a>
</g>
</g>
<!-- detOffset -->
<g id="node21" class="node">
<title>detOffset</title>
<g id="a_node21"><a xlink:href="../api/minkasi_wrapper.extern.minkasi.minkasi.detOffset.html#minkasi_wrapper.extern.minkasi.minkasi.detOffset" xlink:title="detOffset" target="_top">
<polygon fill="white" stroke="black" stroke-width="0.5" points="81.5,-648 25.5,-648 25.5,-629 81.5,-629 81.5,-648"/>
<text text-anchor="middle" x="53.5" y="-636" font-family="Vera Sans, DejaVu Sans, Liberation Sans, Arial, Helvetica, sans" font-size="10.00">detOffset</text>
</a>
</g>
</g>
<!-- null_precon -->
<g id="node22" class="node">
<title>null_precon</title>
<g id="a_node22"><a xlink:href="../api/minkasi_wrapper.extern.minkasi.minkasi.null_precon.html#minkasi_wrapper.extern.minkasi.minkasi.null_precon" xlink:title="null_precon" target="_top">
<polygon fill="white" stroke="black" stroke-width="0.5" points="86.5,-685 20.5,-685 20.5,-666 86.5,-666 86.5,-685"/>
<text text-anchor="middle" x="53.5" y="-673" font-family="Vera Sans, DejaVu Sans, Liberation Sans, Arial, Helvetica, sans" font-size="10.00">null_precon</text>
</a>
</g>
</g>
<!-- tsAirmass -->
<g id="node23" class="node">
<title>tsAirmass</title>
<g id="a_node23"><a xlink:href="../api/minkasi_wrapper.extern.minkasi.minkasi.tsAirmass.html#minkasi_wrapper.extern.minkasi.minkasi.tsAirmass" xlink:title="tsAirmass" target="_top">
<polygon fill="white" stroke="black" stroke-width="0.5" points="84,-722 23,-722 23,-703 84,-703 84,-722"/>
<text text-anchor="middle" x="53.5" y="-710" font-family="Vera Sans, DejaVu Sans, Liberation Sans, Arial, Helvetica, sans" font-size="10.00">tsAirmass</text>
</a>
</g>
</g>
<!-- tsBinnedAz -->
<g id="node24" class="node">
<title>tsBinnedAz</title>
<g id="a_node24"><a xlink:href="../api/minkasi_wrapper.extern.minkasi.minkasi.tsBinnedAz.html#minkasi_wrapper.extern.minkasi.minkasi.tsBinnedAz" xlink:title="tsBinnedAz" target="_top">
<polygon fill="white" stroke="black" stroke-width="0.5" points="225.5,-870 158.5,-870 158.5,-851 225.5,-851 225.5,-870"/>
<text text-anchor="middle" x="192" y="-858" font-family="Vera Sans, DejaVu Sans, Liberation Sans, Arial, Helvetica, sans" font-size="10.00">tsBinnedAz</text>
</a>
</g>
</g>
<!-- tsGeneric -->
<g id="node25" class="node">
<title>tsGeneric</title>
<g id="a_node25"><a xlink:href="../api/minkasi_wrapper.extern.minkasi.minkasi.tsGeneric.html#minkasi_wrapper.extern.minkasi.minkasi.tsGeneric" xlink:title="tsGeneric" target="_top">
<polygon fill="white" stroke="black" stroke-width="0.5" points="83,-759 24,-759 24,-740 83,-740 83,-759"/>
<text text-anchor="middle" x="53.5" y="-747" font-family="Vera Sans, DejaVu Sans, Liberation Sans, Arial, Helvetica, sans" font-size="10.00">tsGeneric</text>
</a>
</g>
</g>
<!-- tsGeneric&#45;&gt;tsBinnedAz -->
<g id="edge5" class="edge">
<title>tsGeneric&#45;&gt;tsBinnedAz</title>
<path fill="none" stroke="black" stroke-width="0.5" d="M78.85,-759.43C88.43,-764.18 99.02,-770.58 107,-778.5 130.17,-801.49 118.22,-821.26 143,-842.5 145.93,-845.01 149.24,-847.18 152.72,-849.07"/>
<polygon fill="black" stroke="black" stroke-width="0.5" points="152.36,-850.84 157.62,-851.46 153.89,-847.69 152.36,-850.84"/>
</g>
<!-- tsBinnedAzShared -->
<g id="node26" class="node">
<title>tsBinnedAzShared</title>
<g id="a_node26"><a xlink:href="../api/minkasi_wrapper.extern.minkasi.minkasi.tsBinnedAzShared.html#minkasi_wrapper.extern.minkasi.minkasi.tsBinnedAzShared" xlink:title="tsBinnedAzShared" target="_top">
<polygon fill="white" stroke="black" stroke-width="0.5" points="241,-833 143,-833 143,-814 241,-814 241,-833"/>
<text text-anchor="middle" x="192" y="-821" font-family="Vera Sans, DejaVu Sans, Liberation Sans, Arial, Helvetica, sans" font-size="10.00">tsBinnedAzShared</text>
</a>
</g>
</g>
<!-- tsGeneric&#45;&gt;tsBinnedAzShared -->
<g id="edge6" class="edge">
<title>tsGeneric&#45;&gt;tsBinnedAzShared</title>
<path fill="none" stroke="black" stroke-width="0.5" d="M73.83,-759.35C83.91,-764.69 96.33,-771.6 107,-778.5 123.79,-789.36 125.46,-795.89 143,-805.5 146.67,-807.51 150.61,-809.39 154.6,-811.12"/>
<polygon fill="black" stroke="black" stroke-width="0.5" points="154.47,-812.96 159.76,-813.25 155.81,-809.72 154.47,-812.96"/>
</g>
<!-- tsDetAz -->
<g id="node29" class="node">
<title>tsDetAz</title>
<g id="a_node29"><a xlink:href="../api/minkasi_wrapper.extern.minkasi.minkasi.tsDetAz.html#minkasi_wrapper.extern.minkasi.minkasi.tsDetAz" xlink:title="tsDetAz" target="_top">
<polygon fill="white" stroke="black" stroke-width="0.5" points="219,-796 165,-796 165,-777 219,-777 219,-796"/>
<text text-anchor="middle" x="192" y="-784" font-family="Vera Sans, DejaVu Sans, Liberation Sans, Arial, Helvetica, sans" font-size="10.00">tsDetAz</text>
</a>
</g>
</g>
<!-- tsGeneric&#45;&gt;tsDetAz -->
<g id="edge7" class="edge">
<title>tsGeneric&#45;&gt;tsDetAz</title>
<path fill="none" stroke="black" stroke-width="0.5" d="M83.45,-757.35C105.48,-763.32 135.8,-771.54 158.63,-777.73"/>
<polygon fill="black" stroke="black" stroke-width="0.5" points="158.85,-779.6 164.13,-779.22 159.76,-776.22 158.85,-779.6"/>
</g>
<!-- tsNotch -->
<g id="node32" class="node">
<title>tsNotch</title>
<g id="a_node32"><a xlink:href="../api/minkasi_wrapper.extern.minkasi.minkasi.tsNotch.html#minkasi_wrapper.extern.minkasi.minkasi.tsNotch" xlink:title="tsNotch" target="_top">
<polygon fill="white" stroke="black" stroke-width="0.5" points="219,-759 165,-759 165,-740 219,-740 219,-759"/>
<text text-anchor="middle" x="192" y="-747" font-family="Vera Sans, DejaVu Sans, Liberation Sans, Arial, Helvetica, sans" font-size="10.00">tsNotch</text>
</a>
</g>
</g>
<!-- tsGeneric&#45;&gt;tsNotch -->
<g id="edge9" class="edge">
<title>tsGeneric&#45;&gt;tsNotch</title>
<path fill="none" stroke="black" stroke-width="0.5" d="M83.45,-749.5C105.48,-749.5 135.8,-749.5 158.63,-749.5"/>
<polygon fill="black" stroke="black" stroke-width="0.5" points="159.11,-751.25 164.11,-749.5 159.11,-747.75 159.11,-751.25"/>
</g>
<!-- tsVecs -->
<g id="node34" class="node">
<title>tsVecs</title>
<g id="a_node34"><a xlink:href="../api/minkasi_wrapper.extern.minkasi.minkasi.tsVecs.html#minkasi_wrapper.extern.minkasi.minkasi.tsVecs" xlink:title="tsVecs" target="_top">
<polygon fill="white" stroke="black" stroke-width="0.5" points="219,-722 165,-722 165,-703 219,-703 219,-722"/>
<text text-anchor="middle" x="192" y="-710" font-family="Vera Sans, DejaVu Sans, Liberation Sans, Arial, Helvetica, sans" font-size="10.00">tsVecs</text>
</a>
</g>
</g>
<!-- tsGeneric&#45;&gt;tsVecs -->
<g id="edge13" class="edge">
<title>tsGeneric&#45;&gt;tsVecs</title>
<path fill="none" stroke="black" stroke-width="0.5" d="M83.45,-741.65C105.48,-735.68 135.8,-727.46 158.63,-721.27"/>
<polygon fill="black" stroke="black" stroke-width="0.5" points="159.76,-722.78 164.13,-719.78 158.85,-719.4 159.76,-722.78"/>
</g>
<!-- tsStripes -->
<g id="node35" class="node">
<title>tsStripes</title>
<g id="a_node35"><a xlink:href="../api/minkasi_wrapper.extern.minkasi.minkasi.tsStripes.html#minkasi_wrapper.extern.minkasi.minkasi.tsStripes" xlink:title="tsStripes" target="_top">
<polygon fill="white" stroke="black" stroke-width="0.5" points="220,-685 164,-685 164,-666 220,-666 220,-685"/>
<text text-anchor="middle" x="192" y="-673" font-family="Vera Sans, DejaVu Sans, Liberation Sans, Arial, Helvetica, sans" font-size="10.00">tsStripes</text>
</a>
</g>
</g>
<!-- tsGeneric&#45;&gt;tsStripes -->
<g id="edge11" class="edge">
<title>tsGeneric&#45;&gt;tsStripes</title>
<path fill="none" stroke="black" stroke-width="0.5" d="M83.44,-742.34C91.44,-739.65 99.87,-736.09 107,-731.5 126.57,-718.92 123.61,-706.36 143,-693.5 147.48,-690.53 152.51,-687.96 157.59,-685.77"/>
<polygon fill="black" stroke="black" stroke-width="0.5" points="158.87,-687.14 162.85,-683.65 157.56,-683.89 158.87,-687.14"/>
</g>
<!-- tsStripes_old -->
<g id="node36" class="node">
<title>tsStripes_old</title>
<g id="a_node36"><a xlink:href="../api/minkasi_wrapper.extern.minkasi.minkasi.tsStripes_old.html#minkasi_wrapper.extern.minkasi.minkasi.tsStripes_old" xlink:title="tsStripes_old" target="_top">
<polygon fill="white" stroke="black" stroke-width="0.5" points="229,-648 155,-648 155,-629 229,-629 229,-648"/>
<text text-anchor="middle" x="192" y="-636" font-family="Vera Sans, DejaVu Sans, Liberation Sans, Arial, Helvetica, sans" font-size="10.00">tsStripes_old</text>
</a>
</g>
</g>
<!-- tsGeneric&#45;&gt;tsStripes_old -->
<g id="edge12" class="edge">
<title>tsGeneric&#45;&gt;tsStripes_old</title>
<path fill="none" stroke="black" stroke-width="0.5" d="M83.38,-744.06C91.73,-741.37 100.38,-737.39 107,-731.5 134.63,-706.93 115.72,-681.46 143,-656.5 144.99,-654.68 147.19,-653.03 149.51,-651.55"/>
<polygon fill="black" stroke="black" stroke-width="0.5" points="150.98,-652.73 154.47,-648.75 149.26,-649.68 150.98,-652.73"/>
</g>
<!-- tsCalib -->
<g id="node27" class="node">
<title>tsCalib</title>
<g id="a_node27"><a xlink:href="../api/minkasi_wrapper.extern.minkasi.minkasi.tsCalib.html#minkasi_wrapper.extern.minkasi.minkasi.tsCalib" xlink:title="tsCalib" target="_top">
<polygon fill="white" stroke="black" stroke-width="0.5" points="80.5,-806 26.5,-806 26.5,-787 80.5,-787 80.5,-806"/>
<text text-anchor="middle" x="53.5" y="-794" font-family="Vera Sans, DejaVu Sans, Liberation Sans, Arial, Helvetica, sans" font-size="10.00">tsCalib</text>
</a>
</g>
</g>
<!-- tsCommon -->
<g id="node28" class="node">
<title>tsCommon</title>
<g id="a_node28"><a xlink:href="../api/minkasi_wrapper.extern.minkasi.minkasi.tsCommon.html#minkasi_wrapper.extern.minkasi.minkasi.tsCommon" xlink:title="tsCommon" target="_top">
<polygon fill="white" stroke="black" stroke-width="0.5" points="86,-861 21,-861 21,-842 86,-842 86,-861"/>
<text text-anchor="middle" x="53.5" y="-849" font-family="Vera Sans, DejaVu Sans, Liberation Sans, Arial, Helvetica, sans" font-size="10.00">tsCommon</text>
</a>
</g>
</g>
<!-- tsModel -->
<g id="node30" class="node">
<title>tsModel</title>
<g id="a_node30"><a xlink:href="../api/minkasi_wrapper.extern.minkasi.minkasi.tsModel.html#minkasi_wrapper.extern.minkasi.minkasi.tsModel" xlink:title="tsModel" target="_top">
<polygon fill="white" stroke="black" stroke-width="0.5" points="80.5,-907 26.5,-907 26.5,-888 80.5,-888 80.5,-907"/>
<text text-anchor="middle" x="53.5" y="-895" font-family="Vera Sans, DejaVu Sans, Liberation Sans, Arial, Helvetica, sans" font-size="10.00">tsModel</text>
</a>
</g>
</g>
<!-- tsMultiModel -->
<g id="node31" class="node">
<title>tsMultiModel</title>
<g id="a_node31"><a xlink:href="../api/minkasi_wrapper.extern.minkasi.minkasi.tsMultiModel.html#minkasi_wrapper.extern.minkasi.minkasi.tsMultiModel" xlink:title="A class to hold timestream models that are shared between groups of TODs." target="_top">
<polygon fill="white" stroke="black" stroke-width="0.5" points="228,-907 156,-907 156,-888 228,-888 228,-907"/>
<text text-anchor="middle" x="192" y="-895" font-family="Vera Sans, DejaVu Sans, Liberation Sans, Arial, Helvetica, sans" font-size="10.00">tsMultiModel</text>
</a>
</g>
</g>
<!-- tsModel&#45;&gt;tsMultiModel -->
<g id="edge8" class="edge">
<title>tsModel&#45;&gt;tsMultiModel</title>
<path fill="none" stroke="black" stroke-width="0.5" d="M80.82,-897.5C100.21,-897.5 126.97,-897.5 149.27,-897.5"/>
<polygon fill="black" stroke="black" stroke-width="0.5" points="149.97,-899.25 154.97,-897.5 149.97,-895.75 149.97,-899.25"/>
</g>
<!-- tsPoly -->
<g id="node33" class="node">
<title>tsPoly</title>
<g id="a_node33"><a xlink:href="../api/minkasi_wrapper.extern.minkasi.minkasi.tsPoly.html#minkasi_wrapper.extern.minkasi.minkasi.tsPoly" xlink:title="tsPoly" target="_top">
<polygon fill="white" stroke="black" stroke-width="0.5" points="331,-722 277,-722 277,-703 331,-703 331,-722"/>
<text text-anchor="middle" x="304" y="-710" font-family="Vera Sans, DejaVu Sans, Liberation Sans, Arial, Helvetica, sans" font-size="10.00">tsPoly</text>
</a>
</g>
</g>
<!-- tsVecs&#45;&gt;tsPoly -->
<g id="edge10" class="edge">
<title>tsVecs&#45;&gt;tsPoly</title>
<path fill="none" stroke="black" stroke-width="0.5" d="M219.35,-712.5C234.72,-712.5 254.24,-712.5 270.56,-712.5"/>
<polygon fill="black" stroke="black" stroke-width="0.5" points="271.11,-714.25 276.11,-712.5 271.11,-710.75 271.11,-714.25"/>
</g>
</g>
</svg>
